<?xml version="1.0" standalone="no"?>
<!DOCTYPE svg PUBLIC "-//W3C//DTD SVG 20010904//EN"
 "http://www.w3.org/TR/2001/REC-SVG-20010904/DTD/svg10.dtd">
<svg version="1.0" xmlns="http://www.w3.org/2000/svg"
 width="201.000000pt" height="200.000000pt" viewBox="0 0 201.000000 200.000000"
 preserveAspectRatio="xMidYMid meet">

<g transform="translate(0.000000,200.000000) scale(0.100000,-0.100000)"
fill="#000000" stroke="none">
<path d="M365 1746 c-14 -20 -15 -112 -13 -785 3 -742 4 -763 22 -777 11 -8
28 -14 37 -14 10 0 66 36 125 80 l108 80 82 -80 c45 -44 89 -80 99 -80 9 0 52
34 94 75 43 41 81 75 86 75 5 0 43 -34 86 -75 42 -41 85 -75 94 -75 10 0 55
36 100 81 l83 81 108 -82 c89 -66 113 -80 134 -75 14 3 31 13 38 22 9 13 12
183 12 773 0 668 -2 758 -16 778 l-15 22 -624 0 -625 0 -15 -24z m1175 -742
l0 -656 -37 28 c-21 15 -58 43 -82 61 -24 18 -50 33 -59 33 -8 0 -49 -34 -91
-75 -43 -41 -81 -75 -86 -75 -5 0 -43 34 -86 75 -42 41 -84 75 -94 75 -10 0
-53 -35 -96 -77 l-80 -77 -72 71 c-90 89 -108 95 -167 50 -25 -18 -62 -46 -82
-61 l-38 -28 0 656 0 656 535 0 535 0 0 -656z"/>
<path d="M670 1400 c-11 -11 -20 -29 -20 -40 0 -11 9 -29 20 -40 19 -19 33
-20 333 -20 346 0 357 2 357 60 0 58 -11 60 -357 60 -300 0 -314 -1 -333 -20z"/>
<path d="M667 1102 c-21 -23 -22 -52 -3 -78 14 -18 29 -19 341 -19 312 0 327
1 341 19 19 27 18 60 -4 79 -17 15 -55 17 -339 17 -297 0 -321 -1 -336 -18z"/>
<path d="M667 802 c-22 -24 -21 -55 1 -75 17 -15 55 -17 339 -17 297 0 321 1
336 18 21 23 22 56 1 76 -13 14 -58 16 -338 16 -300 0 -324 -1 -339 -18z"/>
</g>
</svg>
