<?xml version="1.0" standalone="no"?>
<!DOCTYPE svg PUBLIC "-//W3C//DTD SVG 20010904//EN"
 "http://www.w3.org/TR/2001/REC-SVG-20010904/DTD/svg10.dtd">
<svg version="1.0" xmlns="http://www.w3.org/2000/svg"
 width="201.000000pt" height="200.000000pt" viewBox="0 0 201.000000 200.000000"
 preserveAspectRatio="xMidYMid meet">

<g transform="translate(0.000000,200.000000) scale(0.100000,-0.100000)"
fill="#000000" stroke="none">
<path d="M226 1748 c-14 -20 -16 -99 -16 -728 0 -622 2 -708 16 -728 15 -22
16 -22 315 -22 l299 0 39 -39 c39 -39 91 -61 141 -61 39 1 103 34 132 69 l27
31 155 0 156 0 0 -33 c0 -33 24 -67 48 -67 22 0 52 40 52 70 l0 30 94 0 c73 0
98 4 110 16 14 14 16 94 16 734 0 640 -2 720 -16 734 -13 14 -55 16 -308 16
-323 0 -358 -5 -435 -61 -43 -31 -43 -31 -65 -11 -11 11 -41 30 -66 43 -44 24
-51 24 -362 27 l-316 3 -16 -23z m649 -92 c19 -8 46 -26 60 -40 l25 -25 0
-527 0 -526 -22 8 c-13 4 -159 9 -325 11 l-303 4 0 555 0 554 265 0 c209 0
273 -3 300 -14z m835 -540 l0 -555 -302 -3 c-224 -2 -309 -6 -325 -16 l-23
-13 0 529 0 528 28 27 c55 53 75 56 360 57 l262 0 0 -554z m-785 -676 c22 -11
43 -27 48 -35 12 -22 61 -18 83 6 37 42 73 49 259 49 l175 0 0 -45 0 -45 -180
0 c-164 0 -181 -2 -196 -19 -59 -70 -74 -81 -104 -81 -31 0 -56 19 -93 74
l-18 26 -294 0 -295 0 0 45 0 45 288 0 c268 0 290 -1 327 -20z m785 -25 l0
-45 -60 0 -60 0 0 45 0 45 60 0 60 0 0 -45z"/>
<path d="M418 1419 c-21 -12 -24 -59 -6 -77 17 -17 429 -17 446 0 19 19 15 66
-7 78 -26 13 -410 13 -433 -1z"/>
<path d="M418 859 c-21 -12 -24 -59 -6 -77 17 -17 429 -17 446 0 19 19 15 66
-7 78 -26 13 -410 13 -433 -1z"/>
<path d="M1168 1419 c-21 -12 -24 -59 -6 -77 9 -9 73 -12 224 -12 205 0 213 1
228 21 16 23 12 47 -12 67 -20 15 -408 17 -434 1z"/>
<path d="M1162 1228 c-19 -19 -15 -66 7 -78 30 -15 413 -13 433 3 24 19 28 43
12 66 -15 20 -23 21 -228 21 -151 0 -215 -3 -224 -12z"/>
<path d="M1162 1038 c-16 -16 -15 -53 2 -67 9 -8 78 -11 226 -9 202 3 213 4
226 23 12 18 11 24 -2 43 -15 22 -20 22 -228 22 -151 0 -215 -3 -224 -12z"/>
<path d="M1168 859 c-21 -12 -24 -59 -6 -77 9 -9 73 -12 224 -12 205 0 213 1
228 21 16 23 12 47 -12 67 -20 15 -408 17 -434 1z"/>
</g>
</svg>
