<?xml version="1.0" standalone="no"?>
<!DOCTYPE svg PUBLIC "-//W3C//DTD SVG 20010904//EN"
 "http://www.w3.org/TR/2001/REC-SVG-20010904/DTD/svg10.dtd">
<svg version="1.0" xmlns="http://www.w3.org/2000/svg"
 width="200.000000pt" height="200.000000pt" viewBox="0 0 200.000000 200.000000"
 preserveAspectRatio="xMidYMid meet">

<g transform="translate(0.000000,200.000000) scale(0.100000,-0.100000)"
fill="#000000" stroke="none">
<path d="M249 1561 c-48 -49 -34 -142 26 -169 47 -22 84 -15 121 22 38 38 44
77 19 126 -19 37 -43 50 -95 50 -33 0 -48 -6 -71 -29z"/>
<path d="M605 1545 c-34 -33 -32 -70 4 -106 l30 -29 556 2 557 3 19 24 c26 32
25 82 -4 109 l-23 22 -558 0 -557 0 -24 -25z"/>
<path d="M284 1100 c-64 -26 -84 -115 -38 -169 63 -75 184 -30 184 69 0 75
-77 128 -146 100z"/>
<path d="M609 1061 c-18 -14 -24 -29 -24 -61 0 -32 6 -47 24 -61 22 -18 49
-19 576 -19 544 0 553 0 579 21 37 29 37 89 0 118 -26 21 -35 21 -579 21 -527
0 -554 -1 -576 -19z"/>
<path d="M271 606 c-58 -32 -69 -119 -22 -167 23 -23 38 -29 71 -29 52 0 76
13 95 50 25 49 19 88 -19 126 -37 37 -81 44 -125 20z"/>
<path d="M609 561 c-36 -36 -38 -73 -4 -106 l24 -25 559 0 559 0 21 23 c27 29
28 77 3 108 l-19 24 -557 3 -556 2 -30 -29z"/>
</g>
</svg>
