<?xml version="1.0" standalone="no"?>
<!DOCTYPE svg PUBLIC "-//W3C//DTD SVG 20010904//EN"
 "http://www.w3.org/TR/2001/REC-SVG-20010904/DTD/svg10.dtd">
<svg version="1.0" xmlns="http://www.w3.org/2000/svg"
 width="201.000000pt" height="200.000000pt" viewBox="0 0 201.000000 200.000000"
 preserveAspectRatio="xMidYMid meet">

<g transform="translate(0.000000,200.000000) scale(0.100000,-0.100000)"
fill="#000000" stroke="none">
<path d="M955 1680 c-49 -20 -91 -97 -79 -145 5 -19 -2 -23 -66 -38 -297 -71
-543 -316 -629 -626 -11 -40 -23 -99 -27 -132 l-7 -59 -39 0 c-54 0 -76 -14
-84 -55 -18 -96 47 -251 121 -289 39 -21 53 -21 835 -24 555 -2 811 0 846 8
100 21 164 124 164 260 0 83 -13 100 -74 100 l-42 0 -12 76 c-16 104 -65 244
-115 333 -53 94 -178 227 -272 289 -81 55 -192 104 -277 123 l-58 12 0 41 c0
97 -97 163 -185 126z m79 -117 c4 -9 0 -23 -9 -32 -13 -14 -17 -14 -31 1 -9 9
-14 24 -11 32 8 21 43 20 51 -1z m151 -173 c213 -54 395 -203 494 -403 39 -79
81 -223 81 -279 l0 -28 -750 0 -750 0 0 33 c0 51 37 184 70 256 76 162 219
306 374 377 142 65 331 82 481 44z m699 -847 c-11 -47 -25 -77 -41 -95 -15
-17 -67 -18 -833 -18 -795 0 -817 1 -834 19 -18 19 -45 84 -46 109 0 9 182 12
880 12 l880 0 -6 -27z"/>
<path d="M662 1258 c-96 -55 -239 -207 -266 -282 -10 -29 19 -66 53 -66 25 0
36 10 75 69 52 78 101 126 184 178 62 40 72 49 72 76 0 20 -34 57 -52 57 -7 0
-37 -14 -66 -32z"/>
</g>
</svg>
