<?xml version="1.0" standalone="no"?>
<!DOCTYPE svg PUBLIC "-//W3C//DTD SVG 20010904//EN"
 "http://www.w3.org/TR/2001/REC-SVG-20010904/DTD/svg10.dtd">
<svg version="1.0" xmlns="http://www.w3.org/2000/svg"
 width="201.000000pt" height="200.000000pt" viewBox="0 0 201.000000 200.000000"
 preserveAspectRatio="xMidYMid meet">

<g transform="translate(0.000000,200.000000) scale(0.100000,-0.100000)"
fill="#000000" stroke="none">
<path d="M891 1744 c-233 -63 -392 -300 -351 -525 15 -80 42 -151 74 -193 l25
-33 -55 -38 c-180 -124 -307 -352 -316 -566 -4 -79 15 -109 67 -109 47 0 61
24 74 128 6 51 21 117 32 146 44 119 143 238 252 304 l54 33 52 -26 c134 -68
290 -66 432 6 l36 18 63 -37 c158 -93 279 -305 280 -489 0 -75 72 -111 121
-62 20 20 21 29 15 96 -19 227 -136 434 -313 554 -26 18 -49 33 -51 34 -2 2
13 31 32 66 61 111 79 218 55 331 -55 262 -324 431 -578 362z m251 -151 c65
-30 133 -95 165 -162 24 -49 28 -68 28 -146 0 -84 -2 -95 -34 -153 -81 -149
-249 -213 -411 -158 -77 27 -169 119 -196 196 -79 231 87 458 326 447 48 -2
92 -11 122 -24z"/>
</g>
</svg>
